nColumns=28
nRows=28
DataType=double
version=3
OpenSimVersion=4.3
endheader
time	ground_force_1_vx	ground_force_1_vy	ground_force_1_vz	ground_force_1_px	ground_force_1_py	ground_force_1_pz	ground_moment_1_mx	ground_moment_1_my	ground_moment_1_mz	ground_force_2_vx	ground_force_2_vy	ground_force_2_vz	ground_force_2_px	ground_force_2_py	ground_force_2_pz	ground_moment_2_mx	ground_moment_2_my	ground_moment_2_mz	ground_force_3_vx	ground_force_3_vy	ground_force_3_vz	ground_force_3_px	ground_force_3_py	ground_force_3_pz	ground_moment_3_mx	ground_moment_3_my	ground_moment_3_mz
0.00000000	0.00000000	0.00000000	0.00000000	0.30000000	0.00000000	0.20000000	0.00000000	0.00000000	0.00000000	23.68459530	64.46789612	-3.37554423	-0.43333300	0.00000000	0.23703800	0.00000000	1.38173144	0.00000000	0.00000000	0.00000000	0.00000000	0.90000000	0.00000000	0.20000000	0.00000000	0.00000000	0.00000000
0.00833333	0.00000000	0.00000000	0.00000000	0.30000000	0.00000000	0.20000000	0.00000000	0.00000000	0.00000000	31.84497531	106.82493904	-2.26668353	-0.41718700	0.00000000	0.22187500	0.00000000	1.64567961	0.00000000	0.00000000	0.00000000	0.00000000	0.90000000	0.00000000	0.20000000	0.00000000	0.00000000	0.00000000
0.01666667	0.00000000	0.00000000	0.00000000	0.30000000	0.00000000	0.20000000	0.00000000	0.00000000	0.00000000	33.54948248	153.16064097	-1.03370976	-0.39847300	0.00000000	0.22290100	0.00000000	1.70264577	0.00000000	0.00000000	0.00000000	0.00000000	0.90000000	0.00000000	0.20000000	0.00000000	0.00000000	0.00000000
0.02500000	0.00000000	0.00000000	0.00000000	0.30000000	0.00000000	0.20000000	0.00000000	0.00000000	0.00000000	27.87906589	201.05122063	-0.97641021	-0.39209700	0.00000000	0.21823700	0.00000000	1.62598702	0.00000000	0.00000000	0.00000000	0.00000000	0.90000000	0.00000000	0.20000000	0.00000000	0.00000000	0.00000000
0.03333333	0.00000000	0.00000000	0.00000000	0.30000000	0.00000000	0.20000000	0.00000000	0.00000000	0.00000000	16.76106236	249.68896414	-2.96838044	-0.38082900	0.00000000	0.21761700	0.00000000	1.54079234	0.00000000	0.00000000	0.00000000	0.00000000	0.90000000	0.00000000	0.20000000	0.00000000	0.00000000	0.00000000
0.04166667	0.00000000	0.00000000	0.00000000	0.30000000	0.00000000	0.20000000	0.00000000	0.00000000	0.00000000	3.35130933	297.84356021	-6.92239452	-0.37029300	0.00000000	0.21882900	0.00000000	1.53836367	0.00000000	0.00000000	0.00000000	0.00000000	0.90000000	0.00000000	0.20000000	0.00000000	0.00000000	0.00000000
0.05000000	0.00000000	0.00000000	0.00000000	0.30000000	0.00000000	0.20000000	0.00000000	0.00000000	0.00000000	-9.63132072	342.24515925	-11.78783594	-0.36054000	0.00000000	0.22126100	0.00000000	1.62066685	0.00000000	0.00000000	0.00000000	0.00000000	0.90000000	0.00000000	0.20000000	0.00000000	0.00000000	0.00000000
0.05833333	0.00000000	0.00000000	0.00000000	0.30000000	0.00000000	0.20000000	0.00000000	0.00000000	0.00000000	-20.62885862	378.49943363	-16.12289058	-0.34697700	0.00000000	0.22294600	0.00000000	1.71748372	0.00000000	0.00000000	0.00000000	0.00000000	0.90000000	0.00000000	0.20000000	0.00000000	0.00000000	0.00000000
0.06666667	0.00000000	0.00000000	0.00000000	0.30000000	0.00000000	0.20000000	0.00000000	0.00000000	0.00000000	-29.22482857	404.12153518	-19.00323738	-0.33722300	0.00000000	0.22304300	0.00000000	1.75910419	0.00000000	0.00000000	0.00000000	0.00000000	0.90000000	0.00000000	0.20000000	0.00000000	0.00000000	0.00000000
0.07500000	0.00000000	0.00000000	0.00000000	0.30000000	0.00000000	0.20000000	0.00000000	0.00000000	0.00000000	-35.94810415	421.10636651	-20.57111005	-0.32798800	0.00000000	0.22303200	0.00000000	1.72880903	0.00000000	0.00000000	0.00000000	0.00000000	0.90000000	0.00000000	0.20000000	0.00000000	0.00000000	0.00000000
0.08333333	0.00000000	0.00000000	0.00000000	0.30000000	0.00000000	0.20000000	0.00000000	0.00000000	0.00000000	-41.95580805	435.52543586	-21.71959872	-0.32337700	0.00000000	0.22424300	0.00000000	1.64672739	0.00000000	0.00000000	0.00000000	0.00000000	0.90000000	0.00000000	0.20000000	0.00000000	0.00000000	0.00000000
0.09166667	0.00000000	0.00000000	0.00000000	0.30000000	0.00000000	0.20000000	0.00000000	0.00000000	0.00000000	-48.37563016	454.28201396	-23.33433591	-0.31506100	0.00000000	0.22496600	0.00000000	1.52803049	0.00000000	0.00000000	0.00000000	0.00000000	0.90000000	0.00000000	0.20000000	0.00000000	0.00000000	0.00000000
0.10000000	0.00000000	0.00000000	0.00000000	0.30000000	0.00000000	0.20000000	0.00000000	0.00000000	0.00000000	-55.56524847	481.56401520	-25.81540339	-0.31177200	0.00000000	0.22632900	0.00000000	1.37381048	0.00000000	0.00000000	0.00000000	0.00000000	0.90000000	0.00000000	0.20000000	0.00000000	0.00000000	0.00000000
0.10833333	0.00000000	0.00000000	0.00000000	0.30000000	0.00000000	0.20000000	0.00000000	0.00000000	0.00000000	-62.87455203	517.32683840	-29.06053921	-0.30070100	0.00000000	0.22616800	0.00000000	1.18865855	0.00000000	0.00000000	0.00000000	0.00000000	0.90000000	0.00000000	0.20000000	0.00000000	0.00000000	0.00000000
0.11666667	0.00000000	0.00000000	0.00000000	0.30000000	0.00000000	0.20000000	0.00000000	0.00000000	0.00000000	-69.10561500	558.18187365	-32.65241484	-0.29608300	0.00000000	0.22589800	0.00000000	0.99068490	0.00000000	0.00000000	0.00000000	0.00000000	0.90000000	0.00000000	0.20000000	0.00000000	0.00000000	0.00000000
0.12500000	0.00000000	0.00000000	0.00000000	0.30000000	0.00000000	0.20000000	0.00000000	0.00000000	0.00000000	-73.25942897	599.48950898	-36.04975735	-0.28993900	0.00000000	0.22703300	0.00000000	0.80473686	0.00000000	0.00000000	0.00000000	0.00000000	0.90000000	0.00000000	0.20000000	0.00000000	0.00000000	0.00000000
0.13333333	0.00000000	0.00000000	0.00000000	0.30000000	0.00000000	0.20000000	0.00000000	0.00000000	0.00000000	-75.04227638	637.26154208	-38.79153932	-0.28701900	0.00000000	0.22807700	0.00000000	0.65097833	0.00000000	0.00000000	0.00000000	0.00000000	0.90000000	0.00000000	0.20000000	0.00000000	0.00000000	0.00000000
0.14166667	0.00000000	0.00000000	0.00000000	0.30000000	0.00000000	0.20000000	0.00000000	0.00000000	0.00000000	-74.88849969	669.16097943	-40.69965676	-0.28435500	0.00000000	0.22781300	0.00000000	0.53669323	0.00000000	0.00000000	0.00000000	0.00000000	0.90000000	0.00000000	0.20000000	0.00000000	0.00000000	0.00000000
0.15000000	0.00000000	0.00000000	0.00000000	0.30000000	0.00000000	0.20000000	0.00000000	0.00000000	0.00000000	-73.58016576	694.62470381	-41.96627465	-0.28056000	0.00000000	0.22907200	0.00000000	0.45307331	0.00000000	0.00000000	0.00000000	0.00000000	0.90000000	0.00000000	0.20000000	0.00000000	0.00000000	0.00000000
0.15833333	0.00000000	0.00000000	0.00000000	0.30000000	0.00000000	0.20000000	0.00000000	0.00000000	0.00000000	-71.77508062	714.44398765	-43.05916243	-0.27816800	0.00000000	0.22979400	0.00000000	0.37854371	0.00000000	0.00000000	0.00000000	0.00000000	0.90000000	0.00000000	0.20000000	0.00000000	0.00000000	0.00000000
0.16666667	0.00000000	0.00000000	0.00000000	0.30000000	0.00000000	0.20000000	0.00000000	0.00000000	0.00000000	-69.76251919	730.06943581	-44.48626525	-0.27613100	0.00000000	0.22864300	0.00000000	0.29139574	0.00000000	0.00000000	0.00000000	0.00000000	0.90000000	0.00000000	0.20000000	0.00000000	0.00000000	0.00000000
0.17500000	0.00000000	0.00000000	0.00000000	0.30000000	0.00000000	0.20000000	0.00000000	0.00000000	0.00000000	-67.54436587	742.85891317	-46.53312327	-0.27475200	0.00000000	0.23184800	0.00000000	0.18598304	0.00000000	0.00000000	0.00000000	0.00000000	0.90000000	0.00000000	0.20000000	0.00000000	0.00000000	0.00000000
0.18333333	0.00000000	0.00000000	0.00000000	0.30000000	0.00000000	0.20000000	0.00000000	0.00000000	0.00000000	-65.08842572	753.57197223	-49.12858818	-0.26997600	0.00000000	0.23212300	0.00000000	0.07672207	0.00000000	0.00000000	0.00000000	0.00000000	0.90000000	0.00000000	0.20000000	0.00000000	0.00000000	0.00000000
0.19166667	0.00000000	0.00000000	0.00000000	0.30000000	0.00000000	0.20000000	0.00000000	0.00000000	0.00000000	-62.52209769	762.31019038	-51.91947351	-0.26784000	0.00000000	0.23392000	0.00000000	-0.01342284	0.00000000	0.00000000	0.00000000	0.00000000	0.90000000	0.00000000	0.20000000	0.00000000	0.00000000	0.00000000
0.20000000	0.00000000	0.00000000	0.00000000	0.30000000	0.00000000	0.20000000	0.00000000	0.00000000	0.00000000	-60.12232265	768.78954120	-54.48017938	-0.26664000	0.00000000	0.23415400	0.00000000	-0.06981190	0.00000000	0.00000000	0.00000000	0.00000000	0.90000000	0.00000000	0.20000000	0.00000000	0.00000000	0.00000000
0.20833333	0.00000000	0.00000000	0.00000000	0.30000000	0.00000000	0.20000000	0.00000000	0.00000000	0.00000000	-58.11847702	772.67724256	-56.49407063	-0.26036400	0.00000000	0.23401900	0.00000000	-0.09287131	0.00000000	0.00000000	0.00000000	0.00000000	0.90000000	0.00000000	0.20000000	0.00000000	0.00000000	0.00000000
0.21666667	0.00000000	0.00000000	0.00000000	0.30000000	0.00000000	0.20000000	0.00000000	0.00000000	0.00000000	-56.47895677	773.85088097	-57.83386508	-0.25727800	0.00000000	0.23524800	0.00000000	-0.09308975	0.00000000	0.00000000	0.00000000	0.00000000	0.90000000	0.00000000	0.20000000	0.00000000	0.00000000	0.00000000
0.22500000	0.00000000	0.00000000	0.00000000	0.30000000	0.00000000	0.20000000	0.00000000	0.00000000	0.00000000	-54.88602963	772.51774057	-58.55656160	-0.25193400	0.00000000	0.23583300	0.00000000	-0.08298865	0.00000000	0.00000000	0.00000000	0.00000000	0.90000000	0.00000000	0.20000000	0.00000000	0.00000000	0.00000000
